<?xml version="1.0" encoding="iso-8859-1"?>
<!-- Generator: Adobe Illustrator 26.3.1, SVG Export Plug-In . SVG Version: 6.00 Build 0)  -->
<svg version="1.1" id="Layer_1" xmlns="http://www.w3.org/2000/svg" xmlns:xlink="http://www.w3.org/1999/xlink" x="0px" y="0px"
	 width="5000px" height="2500px" viewBox="0 0 5000 2500" enable-background="new 0 0 5000 2500" xml:space="preserve">
<rect fill="#EFD4A5" width="5000" height="2500"/>
<g>
	<path fill="#FFFFFF" d="M1321.811,1922.719l25.625-46.912c8.371-15.326,7.582-33.86-2.06-48.372
		c-9.642-14.513-26.133-21.98-43.036-19.505l-51.749,7.592l-35.412-39.593c-11.568-12.932-28.93-17.883-45.314-12.929
		c-16.382,4.958-28.38,18.798-31.313,36.118l-8.979,53.025l-47.509,22.443c-15.521,7.33-25.463,22.802-25.948,40.377
		c-0.485,17.576,8.59,33.605,23.683,41.832l46.2,25.179l6.048,53.463c1.975,17.465,13.194,31.982,29.277,37.887
		c4.946,1.815,10.034,2.7,15.067,2.7c11.337,0,22.394-4.493,30.884-12.968l37.533-37.463l51.249,10.599c0,0,0.001,0,0.002,0
		c16.738,3.461,33.615-3.042,44.038-16.965c10.424-13.926,12.231-32.384,4.717-48.172L1321.811,1922.719z"/>
	<path fill="#FFFFFF" d="M3054.623,533.628c-26.466-117.65-119.06-206.521-230.409-221.144c-14.661-1.931-28.916,5.825-35.64,19.376
		s-4.469,29.989,5.634,41.093c25.73,28.275,43.925,63.646,52.616,102.288c4.204,18.69,6.082,37.524,5.712,56.109
		c-6.83-9.979-17.567-16.499-29.788-17.621l-26.851-2.464l-13.254-24.178c-7.443-13.577-21.235-21.663-36.249-21.427
		c2.531-4.361,4.281-9.264,5.046-14.53l0.904-6.222l5.013-2.695c12.833-6.896,20.72-20.453,20.583-35.38
		c-0.136-14.871-8.228-28.216-21.135-34.835l-3.94-2.019l-0.672-5.245c-1.918-14.981-12.16-27.647-26.093-32.266
		c-13.933-4.618-29.427-0.486-39.465,10.521l-3.521,3.859l-4.333-0.727c-14.219-2.392-28.361,3.577-36.907,15.571
		c-8.58,12.041-9.863,27.794-3.348,41.111l2.544,5.203l-2.793,5.594c-6.762,13.541-5.47,29.512,3.372,41.676
		c8.792,12.096,23.202,17.845,37.611,15.006c0,0,0,0,0.001,0l3.985-0.786l2.784,3.025c7.127,7.75,16.688,12.006,26.622,12.243
		c-1.29,2.047-2.441,4.213-3.395,6.518l-10.574,25.534l-26.425,5.507c-15.402,3.209-27.468,14.922-31.488,30.564
		c-4.021,15.643,0.839,31.967,12.681,42.6l20.318,18.248l-3.079,27.577c-1.795,16.075,5.292,31.51,18.497,40.282
		c6.802,4.519,14.499,6.786,22.208,6.786c7.256,0,14.522-2.009,21.06-6.039l23.132-14.258l24.522,11.537
		c2.573,1.211,5.217,2.123,7.893,2.762c-23.397,22.24-51.74,37.844-83.109,45.326c-21.205,5.057-42.836,6.182-64.291,3.335
		c-14.663-1.944-28.935,5.798-35.67,19.349c-6.736,13.552-4.488,29.998,5.618,41.109c31.399,34.519,70.519,60.37,113.131,74.757
		c25.847,8.726,52.698,13.114,79.539,13.114c19.121,0,38.237-2.227,56.979-6.697c68.985-16.454,127.182-61.041,163.867-125.547
		C3060.377,683.279,3071.229,607.457,3054.623,533.628z"/>
	<path fill="#FFFFFF" d="M3842.694,1539.818c-5.122-8.335-13.335-14.149-22.729-16.086c-9.394-1.944-19.148,0.168-26.993,5.829
		l-12.747,9.196l-389.705,256.377l-15.618,9.958c-8.101,5.165-13.81,13.505-15.813,23.097c-2.002,9.592-0.125,19.611,5.198,27.748
		c25.48,38.94,61.126,72.533,103.084,97.149c44.484,26.097,92.766,39.891,139.631,39.891c75.306,0,146.115-30.076,199.383-84.687
		c53.31-54.655,82.669-127.334,82.669-204.647C3889.055,1649.125,3871.291,1586.352,3842.694,1539.818z"/>
	<g>
		<path fill="#FFFFFF" d="M4377.403,850.918c-7.058-11.979-20.219-18.662-33.739-17.157c-13.527,1.511-24.982,10.947-29.382,24.205
			c-0.508,1.531-5.05,15.429-8.064,31.933c-3.545,19.416-6.421,47.573,9.464,67.849c9.072,11.58,22.356,17.92,37.126,17.92
			c2.091,0,4.215-0.128,6.357-0.385c16.953-2.037,30.774-11.84,37.921-26.897c8.398-17.691,6.757-39.338-5.167-68.12
			C4385.53,864.843,4378.215,852.297,4377.403,850.918z"/>
		<path fill="#FFFFFF" d="M4651.056,643.394c15.52-3.711,27.09-18.03,27.09-35.14c0-94.156-25.478-183.124-71.74-250.515
			c-23.313-33.961-50.735-60.793-81.502-79.749c-33.004-20.337-68.262-30.648-104.79-30.648c-36.528,0-71.786,10.311-104.79,30.648
			c-30.767,18.956-58.189,45.788-81.502,79.749c-46.262,67.391-71.74,156.358-71.74,250.515c0,9.58,3.699,18.766,10.283,25.536
			c3.761,3.866,8.289,6.758,13.212,8.528c-4.606,3.948-8.253,9.106-10.429,15.122c-0.569,1.573-5.664,15.86-9.302,32.733
			c-4.344,20.144-8.229,49.307,8.095,69.923c8.91,11.254,21.778,17.34,36.148,17.34c2.756,0,5.57-0.224,8.42-0.679h0.001
			c5.249-0.838,10.189-2.418,14.718-4.656c-1.2,21.907,3.02,38.39,12.812,50.761c9.523,12.028,23.367,18.532,38.894,18.532
			c3.002,0,6.069-0.244,9.177-0.738h0.001c18.482-2.935,32.899-13.659,40.592-30.198c1.896-4.075,3.298-8.424,4.261-13.028
			c0.512,0.72,1.044,1.43,1.599,2.13c9.323,11.764,22.835,18.117,37.976,18.117c3.004,0,6.071-0.25,9.183-0.758
			c17.76-2.897,32.194-13.708,39.602-29.665c4.271-9.202,6.096-19.725,5.511-31.698c9.4,10.413,22.351,16.019,36.753,16.019
			c3.002,0,6.069-0.244,9.178-0.738c18.483-2.934,32.899-13.659,40.592-30.197c9.176-19.725,7.438-45.487-5.314-78.76
			c-2.43-6.34-5.02-12.32-7.428-17.542h82.104c-0.615,1.278-1.178,2.591-1.648,3.957c-0.509,1.475-5.055,14.867-8.17,30.723
			c-1.917,9.751-3.673,21.758-2.819,33.83c-4.601-1.69-9.572-2.403-14.621-1.98c-13.523,1.138-25.193,10.212-29.958,23.293
			c-0.27,0.74-6.652,18.359-11.08,38.625c-4.999,22.873-9.59,55.873,8.162,78.27c9.323,11.764,22.835,18.117,37.976,18.117
			c3.003,0,6.071-0.25,9.183-0.758c0,0,0,0,0.001,0c17.761-2.897,32.194-13.709,39.602-29.666
			c8.847-19.06,7.298-43.724-4.733-75.403c-0.325-0.855-0.653-1.699-0.981-2.537c4.501,1.42,9.275,2.167,14.229,2.167
			c2.329,0,4.699-0.161,7.094-0.489h0.001c16.571-2.266,30.08-12.077,37.061-26.917c8.112-17.243,6.742-38.111-4.313-65.676
			C4658.764,657.57,4653.189,647.216,4651.056,643.394z M4433.853,630.77c-0.282,0.783-6.976,19.424-11.591,40.894
			c-2.264,10.529-3.689,20.125-4.275,28.874c-5.504-12.69-10.608-21.932-11.313-23.192c-6.764-12.111-19.707-19.103-33.232-17.974
			c-13.522,1.138-25.192,10.212-29.958,23.293c-0.269,0.74-6.652,18.359-11.08,38.625c-0.833,3.812-1.652,7.909-2.361,12.187
			c-0.224-0.596-0.424-1.177-0.654-1.778c-7.541-19.673-16.625-35.919-17.009-36.602c-6.793-12.094-19.743-19.055-33.283-17.89
			c-9.533,0.829-18.121,5.612-24.023,12.943c-0.929-2.859-1.944-5.771-3.089-8.764c-5.937-15.514-12.88-28.032-13.652-29.407
			c-1.611-2.871-3.58-5.443-5.811-7.699l107.003-0.177c16.47-0.025,30.701-11.858,34.194-28.431
			c16.129-76.526,36.579-99.191,42.489-104.337c2.122-1.852,3.436-2.45,3.894-2.619c0.466,0.176,1.795,0.794,3.94,2.677
			c5.649,4.951,24.75,26.193,40.574,95.953c-0.287,0.018-0.573,0.018-0.86,0.042C4450.23,608.564,4438.582,617.672,4433.853,630.77z
			"/>
		<path fill="#FFFFFF" d="M4496.081,798.93c-6.79-12.099-19.759-19.081-33.276-17.903c-13.522,1.17-25.174,10.273-29.908,23.37
			c-0.504,1.396-5.021,14.062-8.239,28.995c-3.971,18.429-7.466,45.182,7.96,64.664c8.634,10.904,21.062,16.803,34.908,16.803
			c2.635,0,5.325-0.214,8.047-0.648h0.001c16.035-2.557,29.103-12.353,35.856-26.875c7.612-16.369,6.56-36.742-3.217-62.284
			C4502.946,811.288,4496.768,800.154,4496.081,798.93z"/>
	</g>
	<path fill="#FFFFFF" d="M4722.783,1184.055c-6.929-11.326-18.034-19.144-30.468-21.451c0,0-0.001-0.001-0.002-0.001
		c-27.523-5.101-77.34-8.624-111.932,21.847c-11.567,0.311-22.475,2.124-32.583,5.425c-26.59,8.688-46.995,23.918-58.707,43.265
		c-18.061,6.654-33.522,18.988-44.029,35.536c-6.069,9.563-10.538,20.845-13.282,33.535c-5.831,26.958,10.335,52.83,36.803,58.899
		c3.589,0.823,7.155,1.219,10.651,1.219c15.575-0.001,29.756-7.854,38.245-20.766c3.125,1.74,6.345,3.192,9.63,4.326
		c14.733,5.087,30.354,3.772,43.984-3.695c6.318-3.462,11.8-8.03,16.245-13.458c8.211,4.34,17.372,6.705,26.987,6.861
		c0.341,0.005,0.68,0.008,1.02,0.008c18.468,0,36.45-8.12,49.479-22.384c13.929-15.25,20.58-34.748,19.816-53.819
		c20.56-1.001,38.486-14.974,44.039-35.786C4732.214,1210.375,4730.064,1195.955,4722.783,1184.055z"/>
	<path fill="#FFFFFF" d="M3676.043,1101.078c-9.942-27.382-26.34-51.742-47.865-71.345c4.45-10.1,6.459-21.117,5.906-32.118
		c6.54-4.634,12.532-6.954,18.403-9.226c6.356-2.461,13.561-5.251,20.305-10.693c11.953-9.646,18.033-24.303,16.681-40.214
		c-1.588-18.7-16.803-32.942-34.89-32.942c-0.431,0-0.866,0.008-1.3,0.023c-25.753,0.969-50.28,10.819-72.049,28.751
		c-22.272-5.069-46.375,1.722-63.261,19.973c-7.924,8.564-13.339,18.663-16.221,29.331c-15.672,0.621-31.151,3.443-46.01,8.449
		c-2.959,0.996-5.766,2.392-8.351,4.142c-34.652,14.201-63.21,39.98-80.875,73.164c-1.001,1.882-1.962,3.785-2.911,5.769
		c-6.014,10.077-17.542,32.849-20.445,63.243c-2.792,29.237,1.904,73.432,40.068,117.886c1.667,1.951,3.393,3.894,5.176,5.828
		c-5.807,10.654-10.517,19.469-14.26,26.582c-0.963-0.103-1.939-0.193-2.925-0.267c-30.715-2.268-56.79,12.215-71.569,39.818
		c-0.504,0.947-1.022,1.945-1.507,2.961c-8.128,17.051-2.016,37.606,13.837,47.092c0.548,0.348,1.109,0.694,1.68,1.043
		c17.921,11.382,39.234,24.002,63.353,37.508c23.235,13.218,44.6,24.695,63.516,34.119c0.535,0.284,1.011,0.525,1.392,0.714
		c0.334,0.174,0.647,0.33,0.928,0.469c5.016,2.592,10.38,3.833,15.68,3.832c11.846,0,23.371-6.192,29.951-17.306
		c0.563-0.951,1.093-1.919,1.59-2.852c0.018-0.034,0.05-0.094,0.069-0.129c14.62-27.625,12.458-58.057-5.928-83.493
		c-0.591-0.816-1.189-1.616-1.792-2.396c3.813-7.081,8.495-15.909,14.091-26.677c2.517,0.504,5.009,0.952,7.472,1.344
		c56.95,9.217,95.635-10.437,118.06-28.55c23.299-18.82,35.762-41.043,40.806-51.717c1.169-1.968,2.236-3.86,3.235-5.737
		c20.588-38.677,24.829-84.851,11.961-127.791C3677.724,1106.763,3677.061,1103.879,3676.043,1101.078z"/>
	<path fill="#FFFFFF" d="M3141.134,1040.161c-25.33-24.564-62.514-28.599-92.657-12.964c-10.745-4.276-22.424-6.137-34.389-5.349
		c-21.364,1.401-41.329,11.136-56.217,27.413c-14.886,16.276-23.128,37.38-23.205,59.424c-0.079,22.057,7.953,42.623,22.656,58.116
		c0.55,0.612,1.125,1.21,1.723,1.79l67.484,65.444c6.511,6.315,15.108,9.817,24.025,9.817c0.35,0,0.7-0.006,1.051-0.016
		c9.29-0.287,18.09-4.362,24.462-11.328l60.2-65.821c2.345-2.069,4.586-4.268,6.687-6.564
		c15.077-16.485,23.322-37.858,23.212-60.181C3166.054,1076.937,3157.164,1055.708,3141.134,1040.161z"/>
	<path fill="#FFFFFF" d="M2325.704,347.03c-10.943-6.591-24.291-8.01-36.625-3.887c-10.072,3.367-18.5,10.295-23.744,19.365
		c-3.13-3.375-6.32-6.563-9.563-9.551c-21.07-19.416-43.687-29.663-65.452-29.663c-0.182,0-0.368,0.001-0.55,0.002
		c-16.411,0.13-46.895,6.428-66.662,47.134c-8.136,16.754-13.662,34.968-16.518,54.384c-12.32,7.777-22.727,20.063-29.801,35.76
		c-5.767,12.795-8.299,26.367-7.576,39.806c-1.993,1.838-3.957,3.679-5.893,5.523c-2.699-2.973-5.376-6.025-8.019-9.145
		c-2.71-3.197-5.344-6.419-7.839-9.586c-0.989-1.256-1.964-2.522-2.951-3.807l-1.221-1.639c-0.35-0.478-0.701-0.955-1.056-1.464
		c-13.78-19.687-39.161-25.504-59.034-13.533c-10.789,6.498-18.492,17.592-21.132,30.435c-2.534,12.323,0.02,25.116,7.009,35.107
		c10.003,14.292,21.837,28.566,36.157,43.612c-12.272,20.362-20.078,40.303-23.286,59.552c-6.431,38.587,5.285,74.109,33.88,102.724
		c21.32,21.335,44.501,36.128,68.901,43.965c13.563,4.357,27.319,6.537,41.155,6.537c10.818-0.001,21.686-1.334,32.538-4.002
		c68.693-16.89,129.429-86.103,162.469-185.142c14.332-42.96,13.494-92.809-2.138-142.011c8.409-16.009,16.185-32.097,23.181-47.967
		c0.522-1.184,1.042-2.37,1.549-3.557C2352.968,383.74,2345.492,358.947,2325.704,347.03z"/>
	<path fill="#FFFFFF" d="M4269.737,1197.102c-18.7-23.434-45.215-36.875-72.746-36.875c-4.838,0-9.646,0.412-14.385,1.22
		c-4.368-10.814-10.167-20.855-17.275-29.763c-18.701-23.434-45.215-36.875-72.745-36.875c-27.531,0-54.046,13.44-72.746,36.875
		c-10.331,12.945-17.894,28.281-22.32,44.903c-2.961-0.536-6.077-0.848-9.341-0.848c-66.553,0-120.793,59.282-121.63,132.498
		c-2.855,20.15,5.046,32.257,12.195,38.869c20.998,19.431,54.615,30.719,102.774,34.51c12.346,0.971,25.731,1.457,40.106,1.457
		c24.787,0,52.51-1.444,82.867-4.323c80.256-7.613,151.221-22.505,154.203-23.135c10.368-2.192,19.218-9.092,24.082-18.772
		c9.055-18.03,13.842-38.64,13.842-59.603C4296.617,1247.284,4287.071,1218.823,4269.737,1197.102z"/>
	<path fill="#FFFFFF" d="M724.984,1167.199c-3.232-30.143-17.855-56.712-41.174-74.817c-21.666-16.82-48.272-24.488-75.809-22.025
		c-7.892-13.916-17.51-25.726-28.508-34.889c-22.266-18.551-48.225-24.635-73.149-17.11c-20.263,6.152-37.334,20.709-49.469,41.546
		c-6.238-1.124-12.57-1.695-18.929-1.695c-62.586,0-113.505,54.078-113.505,120.551c0,15.452,2.77,30.555,8.232,44.889
		c5.265,13.816,18.209,22.903,32.622,22.903h319.046c14.094,0,26.816-8.694,32.291-22.066
		C724.149,1206.129,727.037,1186.318,724.984,1167.199z"/>
	<path fill="#FFFFFF" d="M2606.444,1785.484c-14.474-5.123-30.506,0.007-39.598,12.687l-26.17,36.499l-14.644-30.893
		c-6.24-13.164-19.599-21.132-33.786-20.179c-14.196,0.958-26.42,10.66-30.937,24.551l-13.479,41.456l-43.176-34.865
		c-11.973-9.667-28.635-10.275-41.244-1.505c-12.608,8.771-18.278,24.917-14.036,39.961l44.093,156.382
		c4.359,15.457,18.107,26.024,33.644,26.024c0.391,0,0.783-0.007,1.176-0.02l163.347-5.597
		c18.525-0.634,33.366-16.013,33.866-35.091l4.57-174.315C2630.483,1804.823,2620.917,1790.613,2606.444,1785.484z"/>
	<path fill="#FFFFFF" d="M1790.138,650.585c-12.261-4.339-25.642-1.321-34.973,7.412c-6.906-6.457-16.19-9.946-25.86-9.299
		c-12.075,0.815-22.723,7.955-28.415,18.619c-11.971-9.64-28.615-10.241-41.209-1.478c-12.608,8.771-18.278,24.917-14.036,39.961
		l20.681,73.345c4.358,15.457,18.107,26.024,33.644,26.024c0.391,0,0.783-0.007,1.176-0.02l76.611-2.625
		c18.524-0.634,33.365-16.013,33.866-35.091l2.143-81.754C1814.177,669.925,1804.611,655.716,1790.138,650.585z"/>
	<path fill="#FFFFFF" d="M3866.568,421.068c6.405-18.953,5.497-38.427-2.547-54.814c-10.996-22.435-34.16-37.052-63.553-40.102
		c-13.074-1.358-27.2-0.451-41.512,2.561c-1.279-0.933-2.627-1.782-4.04-2.538c-0.207-0.112-0.415-0.22-0.624-0.327
		c-91.903-51.525-173.072-37.47-225.085-16.521c-55.822,22.479-90.347,57.628-91.789,59.114
		c-6.573,6.767-10.264,15.946-10.264,25.517c0,3.045,0.325,63.25,23.843,119.887c-32.652,20.213-59.774,42.254-79.491,64.725
		c-41.216,46.973-40.019,84.154-31.758,107.074c8.081,22.42,34.397,60.259,119.841,61.785c1.78,0.032,3.564,0.048,5.369,0.047
		c51.116-0.001,112.452-12.718,173.45-36.031c63.15-24.135,119.375-57.115,158.314-92.865
		c63.785-58.56,59.752-104.916,51.671-127.335c-2.675-7.423-6.931-15.631-13.679-23.579
		C3849.808,453.744,3860.957,437.672,3866.568,421.068z"/>
	<path fill="#FFFFFF" d="M2278.624,1290.282c14.978-72.45,3.78-127.556-33.283-163.788c-30.18-29.504-74.828-43.436-132.706-41.409
		c-8.171,0.286-16.022,0.884-23.356,1.656l6.346-37.981c4.138-24.764-12.061-48.375-36.112-52.646
		c-11.592-2.055-23.264,0.636-32.892,7.578c-24.688-28.821-59.504-48.538-99.419-53.035c-9.239-1.04-18.501,1.741-25.749,7.732
		c-7.248,5.991-11.887,14.702-12.897,24.215c-4.202,39.562,5.814,78.51,28.273,110.556c-24.493,9.721-45.021,25.753-60.334,47.741
		c-18.001,25.851-27.046,57.718-26.155,92.158c0.857,33.125,10.904,66.175,29.056,95.578
		c23.619,38.258,65.888,73.113,115.969,95.629c14.995,6.741,30.225,12.208,45.463,16.371c37.905,10.354,75.83,12.627,110.069,6.274
		C2208.246,1432.562,2260.71,1376.936,2278.624,1290.282z"/>
	<g>
		<path fill="#FFFFFF" d="M2139.525,1834.524c-12.673-14.695-31.436-20.59-48.979-17.251c-14.9-4.566-31.503-2.304-44.853,7.026
			c-13.52-30.541-31.592-58.164-53.646-81.456c-22.768-24.046-48.583-42.268-76.728-54.161
			c-29.796-12.589-60.777-17.478-92.085-14.523c-31.306,2.953-60.91,13.554-87.99,31.509
			c-25.578,16.959-47.749,39.708-65.896,67.613c-34.717,53.388-51.226,120.461-46.905,189.791
			c-6.949-4.098-14.819-6.377-23.056-6.574c-3.394-0.078-6.736,0.193-9.998,0.807c-15.366-3.468-32.123,0.693-44.254,12.568
			c-18.827,18.429-20.19,49.247-3.297,69.329c0.427,0.518,0.87,1.025,1.327,1.521l19.003,20.582
			c6.889,7.463,16.137,11.224,25.404,11.223c8.671,0,17.359-3.295,24.14-9.933l8.578-8.397
			c-6.64,13.839-10.166,29.156-10.166,44.979c0,56.104,44.326,101.747,98.811,101.747c14.852,0,29.387-3.475,42.554-9.943
			c21.875,17.302,51.13,27.279,82.669,27.279c29.025,0,56.999-8.663,78.767-24.394c11.29-8.158,20.51-17.842,27.393-28.598
			c8.356,1.543,16.894,2.332,25.47,2.332c32.728,0,63.772-11.18,87.413-31.481c25.109-21.562,39.51-51.998,39.51-83.503
			c0-14.241-2.935-28.424-8.56-41.641c0.059-1.422,0.089-2.841,0.089-4.255c0-15.791-3.527-31.202-10.278-45.192
			c0.019-6.517-0.167-13.031-0.512-19.514c3.116,1.152,6.4,1.859,9.765,2.065c0.692,0.042,1.384,0.063,2.073,0.063
			c8.553,0,16.84-3.224,23.27-9.105l23.048-21.079c1.202-0.925,2.36-1.896,3.458-2.901c10.502-9.603,16.759-22.836,17.619-37.262
			C2153.549,1859.31,2148.874,1845.365,2139.525,1834.524z"/>
		<path fill="#FFFFFF" d="M1579.345,1740.599l32.878,31.459c6.749,6.457,15.308,9.651,23.847,9.651
			c9.4,0,18.775-3.872,25.679-11.521l26.981-29.896c1.307-1.206,2.56-2.473,3.745-3.786c0.002-0.001,0.003-0.002,0.004-0.004
			c10.433-11.561,15.888-26.607,15.36-42.367c-0.531-15.818-7.019-30.458-18.268-41.222c-11.25-10.763-25.912-16.363-41.262-15.741
			c-5.496,0.22-10.846,1.224-15.93,2.958c-19.562-4.783-41.099,1.084-55.625,17.182c-20.816,23.064-20.247,59.365,1.014,81.68
			C1578.274,1739.541,1578.8,1740.077,1579.345,1740.599z"/>
	</g>
	<path fill="#FFFFFF" d="M4740.614,2032.05c-1.144-1.76-2.365-3.443-3.657-5.045c0.874-15.048-3.573-30.369-13.403-43.53
		c-12.892-17.259-32.032-27.177-52.77-28.791c-33.621-147.286-161.967-254.216-312.232-254.216
		c-82.06,0-160.142,31.885-219.862,89.782c-55.475,53.781-90.191,125.138-98.819,202.426c-3.298,3.589-6.106,7.552-8.381,11.805
		c-30.975,9.752-52.542,34.979-52.542,65.221c0,21.941,11.291,41.525,29.911,54.301c0.423,3.054,1.053,6.101,1.893,9.125
		c4.036,14.552,12.693,27.628,24.376,36.819c12.396,9.756,27.66,14.62,42.935,13.707c4.807-0.288,9.566-1.131,14.232-2.509
		c14.163,9.845,32.229,15.572,51.559,15.572c21.198,0,40.827-6.783,55.49-18.404c7.414,0.672,14.838,0.166,21.984-1.566
		c17.91-4.347,32.667-15.778,41.557-32.185c3.069-5.667,5.326-11.764,6.745-18.112c4.044-2.981,7.728-6.543,10.973-10.646
		c8.666-10.957,13.605-25.35,13.907-40.528c0.295-14.779-3.763-29.302-11.427-40.891c-1.217-1.839-2.518-3.593-3.891-5.253
		c0.292-8.765-1.168-17.622-4.451-26.094c-1.798-4.64-4.083-9.024-6.786-13.101c27.319-24.105,58.589-37.055,90.581-37.055
		c37.504,0,73.289,17.28,103.306,49.33c-21.812,11.799-36.22,32.11-36.924,55.977c-0.656,22.244,10.596,42.392,29.704,55.74
		c1.958,16.735,10.117,32.934,23.784,44.869c12.186,10.645,27.57,16.505,43.322,16.505c0.008,0,0.015,0,0.023,0
		c5.754-0.002,11.475-0.767,17.092-2.267c14.217,10.487,32.749,16.819,53.165,17.458c21.801,0.684,42.27-5.508,57.679-16.713
		c7.799,1.051,15.648,0.852,23.221-0.656c17.479-3.484,32.449-13.573,42.151-28.409c4.006-6.126,6.977-12.827,8.871-19.881
		c4.303-2.817,8.25-6.242,11.756-10.238c9.467-10.79,15.096-25.245,15.848-40.705
		C4752.26,2058.863,4748.384,2044.002,4740.614,2032.05z"/>
	<path fill="#FFFFFF" d="M1628.783,1111.03c-23.076-17.795-52.545-25.445-85.727-22.368c-0.806-1.6-1.613-3.204-2.419-4.809
		c-12.828-25.524-26.093-51.917-46.014-72.521c-26.191-27.091-58.24-37.893-95.257-32.107c-1.257,0.196-2.502,0.464-3.731,0.799
		l-71.981,19.673c-0.723,0.195-74.534,20.819-97.219,33.645c-30.007,16.921-50.131,37.385-61.524,62.559
		c-9.827,21.712-13.158,46.194-10.265,76.242c-26.144,26.607-38.977,64.961-33.338,103.216l5.113,34.688
		c4.762,32.305,34.15,54.599,65.511,49.697c0.933-0.146,1.86-0.33,2.779-0.553l21.842-5.3
		c14.894,13.648,35.348,20.644,56.554,17.329c25.181-3.936,45.149-21.434,54.001-44.18l149.992-36.438
		c14.478,10.589,32.788,15.659,51.691,12.704c22.994-3.594,41.749-18.242,51.947-37.897l50.866-12.346
		c0.292-0.072,0.583-0.146,0.873-0.224l20.37-5.516c17.323-4.691,28.423-22.078,25.734-40.314
		C1672.225,1163.903,1655.471,1131.61,1628.783,1111.03z"/>
	<path fill="#FFFFFF" d="M2851.361,1361.087c-2.188-14.415-6.556-25.573-12.118-34.204c10.604-21.435,10.956-44.458,0.837-65.55
		l0.001,0.001c-10.534-21.964-29.04-36.511-52.107-40.966c-17.254-3.33-35.206-0.655-50.826,4.683
		c-14.518-15.712-34.61-25.175-56.432-25.175c-15.134,0-29.538,4.535-41.844,12.712c-14.652-8.163-31.774-12.712-49.562-12.712
		c-23.738,0-46.369,7.925-63.727,22.317c-9.264,7.681-16.632,16.945-21.787,27.143c-19.899,1.958-38.547,9.53-53.357,21.81
		c-19.293,15.996-30.358,38.857-30.358,62.72c0,23.864,11.065,46.724,30.358,62.72c17.357,14.392,39.989,22.317,63.727,22.317
		c5.483,0,10.895-0.417,16.195-1.237c19.218,33.447,53.993,55.164,93.001,55.164c28.104,0,54.797-11.674,74.704-31.452
		c14.372,6.427,30.432,9.873,47.072,9.873c38.466,0,72.499-13.316,91.039-35.619
		C2848.969,1400.241,2854.361,1380.871,2851.361,1361.087z"/>
	<g>
		<path fill="#FFFFFF" d="M777.614,1428.808c-6.765-12.111-19.713-19.093-33.233-17.974c-13.523,1.138-25.192,10.212-29.957,23.293
			c-0.262,0.72-6.468,17.85-10.773,37.548c-4.89,22.38-9.369,54.687,8.126,76.761c9.245,11.663,22.631,17.963,37.623,17.963
			c2.968,0,6-0.247,9.075-0.748c0.001,0,0.001,0,0.002,0c17.563-2.865,31.841-13.566,39.172-29.361
			c8.706-18.756,7.218-42.935-4.549-73.918C786.365,1444.639,778.489,1430.376,777.614,1428.808z"/>
		<path fill="#FFFFFF" d="M1021.461,1407.481c-6.734-17.731-14.61-31.995-15.486-33.563c-6.764-12.111-19.715-19.1-33.233-17.974
			c-13.523,1.138-25.192,10.212-29.957,23.293c-0.262,0.72-6.468,17.85-10.773,37.548c-3.044,13.932-5.926,31.71-3.45,48.471
			c-7.006,2.922-12.943,8.122-16.873,14.855c1.51-15.238-1.725-33.198-9.75-54.328c-6.734-17.731-14.61-31.994-15.486-33.562
			c-6.765-12.109-19.711-19.103-33.233-17.974c-13.523,1.138-25.192,10.212-29.957,23.293c-0.262,0.72-6.468,17.85-10.773,37.548
			c-4.89,22.38-9.369,54.687,8.127,76.76c9.245,11.663,22.63,17.962,37.62,17.962c2.969,0,6.002-0.247,9.076-0.748
			c14.624-2.385,26.954-10.216,34.909-21.883c-1.398,5.005-2.832,10.582-4.1,16.388c-4.89,22.38-9.369,54.687,8.127,76.76
			c9.245,11.664,22.63,17.963,37.622,17.963c2.968,0,6.002-0.247,9.076-0.748c17.563-2.864,31.841-13.566,39.173-29.36
			c8.707-18.755,7.219-42.934-4.549-73.918c-0.439-1.155-0.882-2.294-1.328-3.417c0.198-0.03,0.395-0.052,0.593-0.085
			c17.563-2.864,31.841-13.565,39.173-29.36C1034.716,1462.642,1033.228,1438.464,1021.461,1407.481z"/>
	</g>
	<path fill="#FFFFFF" d="M783.749,1807.181c0,0-0.001,0-0.001-0.001c-14.963-14.508-35.523-19.078-53.759-13.88
		c-17.403-4.659-36.405-0.632-50.317,11.823c-5.057-15.265-12.705-30.218-23.478-43.672c-1.215-8.061-4.687-15.586-10.137-21.769
		l-0.436-0.493c-7.344-8.334-17.399-13.222-28.315-13.766c-1.838-0.09-3.661-0.056-5.465,0.098
		c-72.509-41.001-213.771-1.443-215.282,1.243c-3.972,1.796-7.827,3.708-11.569,5.73c8.274-21.234,3.47-46.72-13.944-63.608
		c-14.962-14.507-35.524-19.076-53.759-13.88c-19.073-5.105-40.084,0.184-54.189,15.61c-20.164,22.045-19.419,57.339,1.448,79.319
		c0.449,0.488,0.913,0.963,1.391,1.426l30.99,30.053c6.097,5.913,14.023,9.359,22.329,9.774c-0.422,3.278-0.491,6.526-0.191,9.689
		c-19.561,41.35-15.814,82.869-9.909,98.507c5.285,13.992,15.654,23.905,28.559,27.982c1.745,27.952,4.188,64.294,6.984,98.021
		c2.459,29.656,4.869,53.427,7.163,70.65c4.01,30.11,7.744,49.1,25.757,58.919c5.596,3.051,13.634,6.246,44.386,8.842
		c18.575,1.568,40.337,2.421,61.599,2.421c0.976,0,1.951-0.001,2.924-0.005c44.27-0.165,105.48-4.023,145.673-21.476
		c11.824-5.133,19.977-16.511,21.254-29.659c0.378-3.886,0.85-8.618,1.392-14.049c4.192-41.979,12.316-123.324,13.42-181.569
		c3.178-3.558,6.121-7.883,8.703-13.077c1.989-4,3.734-8.467,5.212-13.294l27.446,26.617c6.511,6.315,15.108,9.817,24.026,9.817
		c0.35,0,0.7-0.006,1.051-0.016c9.29-0.287,18.089-4.361,24.461-11.328l24.158-26.413c1.241-1.13,2.432-2.318,3.561-3.552
		C807.73,1865.425,806.323,1829.073,783.749,1807.181z"/>
	<g>
		<path fill="#FFFFFF" d="M741.805,742.715c-13.09-7.782-28.31-10.094-42.859-6.502c-5.239,1.292-10.233,3.344-14.838,6.048
			c-20.528-0.734-40.722,9.67-51.434,28.774c-7.658,13.656-9.523,29.608-5.251,44.917c3.945,14.144,12.776,26.22,24.936,34.154
			c0.559,0.377,1.132,0.74,1.718,1.089l39.759,23.636c5.519,3.282,11.543,4.841,17.489,4.841c12.111,0,23.891-6.472,30.382-18.048
			l19.057-33.991c1.018-1.474,1.964-2.992,2.826-4.533c7.64-13.625,9.503-30.179,5.112-45.418
			C764.448,762.916,754.895,750.497,741.805,742.715z"/>
		<path fill="#FFFFFF" d="M836.148,414.092c-10.481-14.103-21.616-27.089-33.353-38.918c4.021-0.731,7.987-2.187,11.711-4.45
			l32.839-19.953c1.576-0.762,3.119-1.601,4.616-2.509c26.933-16.365,35.644-52.715,19.418-81.03
			c-10.865-18.959-30.196-29.58-49.871-29.616c-4.657-2.977-9.734-5.28-15.108-6.813c-14.907-4.252-30.38-2.181-43.572,5.832
			c-13.188,8.015-22.43,20.96-26.022,36.453c-3.317,14.307-1.398,29.289,5.395,42.348c0.309,0.618,0.637,1.229,0.984,1.835
			l9.737,16.992c-4.688-3.067-9.439-5.992-14.259-8.754c-38.765-22.206-80.031-33.465-122.652-33.465
			c-42.621,0-83.887,11.259-122.652,33.465c-36.574,20.951-69.373,50.755-97.485,88.582c-9.621,12.947-18.514,26.642-26.685,40.959
			c-4.786-8.722-11.86-15.966-20.606-20.922c-11.963-6.78-25.765-8.576-38.861-5.049c-3.97,1.069-7.774,2.619-11.337,4.592
			c-17.783,0.56-34.787,10.331-43.779,27.153c-13.248,24.787-4.635,56.51,19.152,71.363c0.538,0.346,1.087,0.678,1.646,0.994
			l30.605,17.345c5.36,3.038,11.152,4.479,16.866,4.479c1.454,0,2.902-0.102,4.337-0.286
			c-13.136,44.817-20.446,92.823-21.324,142.206c-0.172,9.683,3.443,19.032,10.033,25.942c6.59,6.91,15.6,10.803,25.005,10.803
			h183.375c16.182,0,30.26-11.409,34.062-27.605c22.511-95.872,47.552-121.205,57.649-121.205
			c13.284,0,42.211,32.938,63.279,121.327c3.847,16.137,17.897,27.483,34.034,27.483h177.773c9.406,0,18.416-3.893,25.005-10.803
			c6.59-6.91,10.205-16.259,10.033-25.942C924.235,590.068,892.277,489.622,836.148,414.092z"/>
	</g>
	<path fill="#FFFFFF" d="M1587.601,391.275c-4.498-28.477-14.472-53.922-29.643-75.627c-16.117-23.058-37.681-41.296-64.093-54.206
		c-26.413-12.909-53.767-18.579-81.307-16.866c-25.924,1.619-51.375,9.747-75.647,24.162
		c-44.097,26.19-81.836,71.334-109.137,130.555c-44.331,96.164-36.443,180.871,20.706,237.399l-71.624,138.935
		c-8.599,16.681-3.253,37.368,12.26,47.442l40.511,26.307c5.654,3.672,12.143,5.563,18.695,5.563c3.272,0,6.561-0.472,9.767-1.431
		c9.625-2.876,17.593-9.858,21.891-19.18l66.25-143.711c38.856,9.457,76.549,5.455,110.49-11.986
		c41.184-21.162,75.382-60.777,101.644-117.745C1585.663,501.665,1595.774,443.015,1587.601,391.275z"/>
	<path fill="#FFFFFF" d="M3211.273,1933.415c-9.195-8.844-18.7-17.989-26.858-27.139v-0.001c-1.223-1.371-5.492-7.379-9.088-27.09
		c-3.07-16.815-4.585-37.702-6.051-57.901c-3.149-43.414-6.126-84.42-23.847-112.432c-15.354-24.267-47.363-56.86-83.535-85.057
		c-30.501-23.776-75.269-53.235-115.329-58.553c-30.517-4.043-49.642,6.982-60.31,16.95c-16.47,15.39-34.198,43.859-25.118,92.081
		c5.033,26.737,16.873,53.457,27.318,77.031c6.213,14.021,15.59,35.184,15.967,42.243c-0.302,12.406-8.471,37.597-15.682,59.833
		c-12.066,37.207-23.462,72.351-20.233,101.425c3.526,31.767,24.96,58.307,43.87,81.724c6.007,7.439,14.878,18.422,17.521,23.56
		c0.188,4.205-0.072,13.123-0.268,19.854c-1.257,43.04-0.801,77.789,17.023,100.758c23.209,29.909,53.338,44.533,87.109,42.329
		c13.439-0.882,26.175-4.35,37.696-8.638l7.24,29.673c2.324,9.523,8.315,17.66,16.594,22.533c5.347,3.149,11.349,4.76,17.395,4.76
		c3.314,0,6.642-0.484,9.88-1.464l34.062-10.307c18.568-5.62,29.198-25.676,23.741-44.796l-11.903-41.705
		c20.311-9.885,37.443-20.612,51.893-32.454c42.803-35.087,52.604-73.579,53.288-99.691
		C3274.864,1994.583,3241.08,1962.086,3211.273,1933.415z"/>
	<g>
		<path fill="#F5C050" d="M1302.958,2000.799l-69.312-14.333l-50.761,50.668c-5.647,5.636-15.119,2.159-16.028-5.885l-8.18-72.307
			l-62.484-34.053c-6.951-3.788-6.666-14.139,0.482-17.515l64.256-30.355l12.144-71.714c1.351-7.977,10.999-10.897,16.327-4.94
			l47.893,53.547l69.989-10.268c7.786-1.142,13.463,7.404,9.608,14.462l-34.657,63.449l31.112,65.368
			C1316.808,1994.192,1310.669,2002.393,1302.958,2000.799z"/>
	</g>
	<g>
		<g>
			<path fill="#F5C050" d="M2711.474,447.696l-15.981-17.366l-22.82,4.498c-2.538,0.5-4.446-2.3-3.229-4.739l10.948-21.926
				l-10.567-21.603c-1.175-2.403,0.782-5.262,3.312-4.837l22.747,3.815l16.29-17.85c1.812-1.986,4.93-0.952,5.276,1.75l3.111,24.284
				l20.634,10.572c2.295,1.176,2.265,4.674-0.052,5.919l-20.824,11.193l-3.537,24.383
				C2716.388,448.5,2713.252,449.627,2711.474,447.696z"/>
		</g>
		<g>
			<path fill="#F5C050" d="M2794.672,646.787l-38.438-18.087c-1.778-0.836-3.841-0.719-5.518,0.315l-36.261,22.352
				c-4.223,2.603-9.512-0.91-8.95-5.945l4.827-43.232c0.223-1.999-0.523-3.984-1.996-5.307l-31.849-28.603
				c-3.709-3.331-2.099-9.596,2.725-10.602l41.421-8.632c1.916-0.399,3.518-1.744,4.285-3.595l16.577-40.03
				c1.931-4.662,8.215-5.021,10.634-0.607l20.773,37.897c0.961,1.753,2.698,2.906,4.644,3.085l42.094,3.864
				c4.903,0.45,7.176,6.493,3.847,10.227l-28.583,32.054c-1.322,1.482-1.851,3.54-1.414,5.502l9.439,42.418
				C2804.028,644.8,2799.148,648.894,2794.672,646.787z"/>
		</g>
		<g>
			<path fill="#A1C3CF" d="M3020.482,541.759c30.143,134.002-45.166,266.405-168.193,295.748
				c-80.439,19.185-161.351-10.427-216.164-70.686c25.023,3.317,50.874,2.182,76.673-3.971
				c123.027-29.343,198.311-161.763,168.168-295.764c-10.437-46.399-32.137-86.898-61.184-118.819
				C2914.102,360.653,2996.661,435.858,3020.482,541.759z"/>
		</g>
		
			<ellipse transform="matrix(0.5153 -0.857 0.857 0.5153 1025.6445 2760.6758)" fill="#4E87CC" cx="2953.577" cy="473.55" rx="4.678" ry="11.489"/>
		
			<ellipse transform="matrix(0.9917 -0.1287 0.1287 0.9917 -43.1201 383.3559)" fill="#4E87CC" cx="2945.067" cy="525.366" rx="4.58" ry="11.736"/>
		
			<ellipse transform="matrix(0.9916 -0.129 0.129 0.9916 -53.7081 390.7358)" fill="#4E87CC" cx="2989.84" cy="610.024" rx="5.49" ry="15.615"/>
		
			<ellipse transform="matrix(0.6017 -0.7987 0.7987 0.6017 640.1655 2618.063)" fill="#4E87CC" cx="2945.067" cy="667.174" rx="15.454" ry="5.547"/>
		
			<ellipse transform="matrix(0.6017 -0.7987 0.7987 0.6017 571.9285 2616.5618)" fill="#4E87CC" cx="2909.443" cy="734.84" rx="14.451" ry="5.187"/>
		
			<ellipse transform="matrix(0.9925 -0.1222 0.1222 0.9925 -49.4001 365.2326)" fill="#4E87CC" cx="2953.907" cy="585.493" rx="5.525" ry="7.763"/>
		
			<ellipse transform="matrix(0.8987 -0.4385 0.4385 0.8987 -29.5205 1365.7721)" fill="#4E87CC" cx="2942.259" cy="746.801" rx="7.09" ry="5.29"/>
		
			<ellipse transform="matrix(0.8745 -0.485 0.485 0.8745 115.7646 1512.8414)" fill="#4E87CC" cx="2981.728" cy="532.684" rx="4.611" ry="11.659"/>
		
			<ellipse transform="matrix(0.4083 -0.9128 0.9128 0.4083 1115.828 3119.0896)" fill="#4E87CC" cx="2963.968" cy="698.799" rx="11.683" ry="4.601"/>
		
			<ellipse transform="matrix(0.4034 -0.915 0.915 0.4034 1005.1545 3108.2947)" fill="#4E87CC" cx="2886.236" cy="783.324" rx="10.925" ry="5.959"/>
	</g>
	<g>
		<g>
			<path fill="#6FAD9E" d="M3854.01,1703.631c0,139.868-110.6,253.248-247.008,253.248c-85.537,0-169.332-53.385-213.652-121.118
				l19.996-12.749l386.114-254.083l13.62-9.827C3837.053,1598.108,3854.01,1654.116,3854.01,1703.631z"/>
		</g>
		<path fill="#E87A49" d="M3826.019,1674.656c0,132.616-104.843,240.093-234.154,240.093c-72.807,0-140.04-35.444-182.994-88.877
			l392.606-258.286C3817.185,1599.824,3826.019,1636.184,3826.019,1674.656z"/>
		<path fill="#411D05" d="M3572.876,1790.434c0,0-35.287,72.671,0,76.496C3608.164,1870.754,3572.876,1790.434,3572.876,1790.434z"
			/>
		<path fill="#411D05" d="M3642.747,1775.398c0,0,13.256,88.763,49.739,68.132S3642.747,1775.398,3642.747,1775.398z"/>
		<path fill="#411D05" d="M3693.595,1729.237c0,0,23.215,67.89,58.502,41.116
			C3779.062,1749.895,3693.595,1729.237,3693.595,1729.237z"/>
		<path fill="#411D05" d="M3727.29,1693.78c0,0,40.594,16.333,37.808-5.659C3762.312,1666.128,3727.29,1693.78,3727.29,1693.78z"/>
	</g>
	<g>
		<g>
			<path fill="#7FB0BF" d="M4347.443,869.623c0,0-24.452,73.665,7.661,69.806C4386.361,935.673,4347.443,869.623,4347.443,869.623z"
				/>
		</g>
		<g>
			<path fill="#7FB0BF" d="M4620.101,660.349c0,0-24.299,70.532,6.246,66.356C4656.078,722.641,4620.101,660.349,4620.101,660.349z"
				/>
		</g>
		<g>
			<path fill="#7FB0BF" d="M4282.044,713.151c0,0-35.58,98.546,6.728,91.829C4329.951,798.441,4282.044,713.151,4282.044,713.151z"
				/>
		</g>
		<g>
			<path fill="#7FB0BF" d="M4466.701,643.333c0,0-35.58,98.546,6.728,91.829C4514.608,728.623,4466.701,643.333,4466.701,643.333z"
				/>
		</g>
		<g>
			<path fill="#7FB0BF" d="M4376.296,695.325c0,0-33.654,92.398,5.947,85.94C4420.788,774.98,4376.296,695.325,4376.296,695.325z"/>
		</g>
		<g>
			<path fill="#7FB0BF" d="M4564.319,746.822c0,0-33.654,92.398,5.947,85.94C4608.812,826.477,4564.319,746.822,4564.319,746.822z"
				/>
		</g>
		<g>
			<path fill="#7FB0BF" d="M4207.989,670.019c0,0-27.588,76.289,5.153,71.065C4245.011,735.999,4207.989,670.019,4207.989,670.019z"
				/>
		</g>
		<g>
			<path fill="#7FB0BF" d="M4465.739,816.974c0,0-23.891,66.086,4.473,61.564C4497.821,874.137,4465.739,816.974,4465.739,816.974z"
				/>
		</g>
		<g>
			<path fill="#411D05" d="M4643.102,608.241h-142.366c-13-61.658-31.938-105.017-53.981-124.34
				c-8.479-7.441-17.407-11.329-26.642-11.329c-9.196,0-18.105,3.839-26.565,11.221c-22.072,19.224-41.066,62.485-54.077,124.212
				l-19.157,0.03l-30.025,0.049l-24.749,0.039l-36.535,0.069l-31.88,0.049c0-179.393,99.837-324.826,222.988-324.826
				S4643.102,428.848,4643.102,608.241z"/>
		</g>
		<path fill="#945931" d="M4611.202,608.241h-110.466c-13-61.658-31.938-105.017-53.981-124.34
			c-8.479-8.071-17.427-12.383-26.661-12.383c-9.196,0-18.096,4.272-26.546,12.274c-22.072,19.224-41.066,62.485-54.077,124.212
			l-19.157,0.03l-30.025,0.049l-24.749,0.039l-36.535,0.069c13.679-157.305,94.043-278.061,191.108-278.061
			C4517.187,330.13,4597.533,450.907,4611.202,608.241z"/>
		<path fill="#D5BA83" d="M4574.657,608.241h-73.921c-13-61.658-31.938-105.017-53.981-124.34
			c-8.479-8.071-17.427-12.383-26.661-12.383c-9.196,0-18.096,4.272-26.546,12.274c-22.072,19.224-41.066,62.485-54.077,124.212
			l-19.157,0.03l-30.025,0.049l-24.749,0.039c16.805-142.973,79.628-249.211,154.554-249.211
			C4495.039,358.912,4557.881,465.209,4574.657,608.241z"/>
		<path fill="#D8C5AB" d="M4549.928,608.241h-49.192c-13-61.658-31.938-105.017-53.981-124.34
			c-8.479-8.071-17.427-12.383-26.661-12.383c-9.196,0-18.096,4.272-26.546,12.274c-22.072,19.224-41.066,62.485-54.077,124.212
			l-19.157,0.03l-30.025,0.049c20.743-124.763,71.044-212.811,129.805-212.811C4478.893,395.273,4529.222,483.389,4549.928,608.241z
			"/>
		<path fill="#6B85B6" d="M4519.912,608.241h-19.176c-13-61.658-31.938-105.017-53.981-124.34
			c-8.479-7.441-17.407-11.329-26.642-11.329c-9.196,0-18.105,3.839-26.565,11.221c-22.072,19.224-41.066,62.485-54.077,124.212
			l-19.157,0.03c20.055-100.371,57.222-167.797,99.779-167.797C4462.681,440.237,4499.875,507.751,4519.912,608.241z"/>
	</g>
	<g>
		<g>
			<path fill="#411D05" d="M4686.151,1198.286c-10.582-1.965-21.596-2.732-32.341-2.364c-18.896,0.646-39.468,4.82-53.417,18.562
				c-8.458,8.332-12.82,19.226-14.157,30.861c-0.758,6.598-0.207,13.081,0.776,19.631c1.196,7.975,2.852,18.317,8.014,24.636
				c11.716,14.341,32.276,11.633,44.126-0.957c12.797-13.596,14.869-33.972,2.562-48.576c-7.135-8.467-18.218-13.264-28.75-15.816
				c-16.842-4.082-36.499-5.484-53.116-0.302c-15.036,4.689-29.706,12.043-39.243,24.956c-6.93,9.381-9.177,21.124-6.895,32.481
				c3.257,16.207,19.724,35.841,38.109,29.99c11.953-3.804,16.854-17.951,10.648-28.582c-4.936-8.456-14.688-13.427-23.703-16.227
				c-24.026-7.461-51.021,0.362-64.645,22.114c-4.058,6.478-6.713,13.95-8.311,21.397c-1.446,6.736,2.001,13.806,8.918,15.707
				c6.364,1.749,14.253-2.145,15.707-8.918c0.516-2.406,1.108-4.789,1.871-7.13c0.238-0.73,0.52-1.447,0.755-2.177
				c1.103-3.412-1.158,2.078,0.408-1.014c0.781-1.541,1.538-3.079,2.439-4.554c0.512-0.838,1.11-1.625,1.619-2.462
				c1.303-2.142-1.58,1.545,0.631-0.74c1.152-1.191,2.292-2.357,3.496-3.497c0.422-0.4,0.895-0.748,1.34-1.121
				c-2.632,2.198-0.444,0.361,0.194-0.015c1.206-0.71,2.413-1.407,3.628-2.1c0.708-0.404,3.333-1.326-0.046-0.077
				c0.895-0.331,1.778-0.679,2.686-0.973c1.411-0.457,2.844-0.838,4.295-1.144c0.646-0.136,1.337-0.192,1.972-0.368
				c1.714-0.474-3.338,0.193-0.627,0.086c3.167-0.125,6.211-0.227,9.387-0.058c3.456,0.184-2.323-0.565,1.123,0.135
				c1.207,0.245,2.415,0.466,3.61,0.764c1.268,0.316,2.522,0.68,3.761,1.094c0.545,0.182,1.082,0.389,1.625,0.575
				c3.182,1.087-1.753-1.087,0.014-0.006c1.667,1.02,3.514,2.113,5.253,2.995c1.936,0.98-2.273-2.234-0.862-0.674
				c0.326,0.36,0.766,0.702,1.131,1.026c0.238,0.212,0.427,0.5,0.673,0.698c2.115,1.706-1.562-2.247-0.615-0.806
				c1.564,2.381-0.521-1.847-0.241-0.881c0.722,2.496-0.1-3.721-0.138-1.228c0.015-0.972,0.502-2.93,0.921-3.638
				c-0.524,0.885-1.141,1.106,1.293-1.575c-0.945,1.041-2.179,1.509,1.198-0.68c-2.456,1.591,2.418-0.726,1.139-0.318
				c-2.825,0.901,2.812-0.199,1.27-0.114c-3.195,0.175,3.339,0.616,0.729,0.12c-0.265-0.05-0.527-0.155-0.786-0.233
				c-2.494-0.749,2.405,1.648,1.06,0.456c-0.478-0.423-1.405-0.87-1.998-1.167c-2.442-1.223,2.297,2.354,0.034,0.015
				c-0.671-0.693-1.386-1.359-2.066-2.045c-2.684-2.71,1.133,2.023-0.43-0.458c-0.809-1.283-3.276-4.094-3.141-5.618
				c0.015-0.171,1.03,3.387,0.615,1.369c-0.119-0.577-0.409-1.167-0.58-1.734c-0.358-1.19-0.528-2.414-0.849-3.608
				c-0.612-2.278-0.071,3.255,0.144,0.903c0.037-0.408-0.084-0.852-0.073-1.267c0.022-0.85-0.391-3.176,0.138-3.866
				c0.072-0.093-0.766,3.538-0.171,1.434c0.182-0.643,0.268-1.322,0.438-1.971c0.359-1.373,2.289-4.849,0.375-1.561
				c0.687-1.179,1.306-2.414,1.987-3.6c0.326-0.568,0.752-1.073,1.111-1.62c-1.905,2.908-0.538,0.652,0.074,0.024
				c1.031-1.056,2.015-2.135,3.114-3.128c0.701-0.633,1.426-1.237,2.162-1.829c-2.456,1.976,0.266-0.111,0.656-0.375
				c3.495-2.362,7.275-4.387,11.16-6.029c-1.848,0.781,0.81-0.285,1.24-0.448c1.089-0.411,2.185-0.804,3.287-1.179
				c2.854-0.97,5.767-1.909,8.706-2.594c4.099-0.956,9.93-0.555,14.719-0.37c2.208,0.085,4.415,0.214,6.617,0.399
				c1.237,0.104,2.469,0.246,3.705,0.363c3.194,0.303-1.533-0.318,1.246,0.165c3.731,0.648,7.428,1.357,11.061,2.444
				c1.43,0.428,2.815,1.005,4.242,1.431c2.793,0.833-2.485-1.32,0.007-0.015c0.801,0.419,1.636,0.773,2.436,1.199
				c1.171,0.623,2.271,1.338,3.401,2.027c2.822,1.722-1.715-1.872,0.546,0.395c0.702,0.704,1.43,1.45,2.169,2.114
				c2.075,1.86-1.175-0.59-0.535-0.826c0.099-0.036,0.996,1.417,1.085,1.58c0.19,0.347,1.08,2.461,1.363,2.544
				c-1.544-0.451-1.006-3.282-0.634-1.4c0.079,0.397,0.264,0.797,0.373,1.189c0.05,0.179,0.565,2.386,0.512,2.394
				c-1.037,0.164-0.129-4.02-0.259-1.472c-0.032,0.622,0.002,1.294,0.019,1.918c0.008,0.318-0.064,0.638-0.055,0.955
				c0.083,2.796,0.826-2.712,0.142-1.029c-0.34,0.836-0.457,1.902-0.692,2.778c-0.121,0.45-0.38,0.901-0.466,1.355
				c-0.346,1.842,1.639-2.936,0.551-1.286c-0.515,0.782-0.85,1.723-1.332,2.535c-0.381,0.643-2.568,3.544-0.868,1.459
				c1.726-2.117-0.66,0.697-1.148,1.199c-0.642,0.659-1.414,1.214-2.033,1.885c-1.303,1.412,2.568-1.615,1.33-1.016
				c-0.458,0.222-0.85,0.633-1.295,0.888c-0.728,0.416-1.632,0.786-2.303,1.283c-1.524,1.128,3.325-0.952,1.471-0.611
				c-0.408,0.075-0.792,0.313-1.201,0.407c-0.385,0.088-0.842,0.18-1.211,0.316c-2.413,0.894,3.047,0.043,1.365-0.14
				c-0.696-0.076-1.743-0.079-2.432,0.01c-1.363,0.178,2.055,0.138,2.189,0.302c-0.173-0.211-1.294-0.271-1.588-0.381
				c-2.088-0.775,1.386,0.344,1.494,0.699c-0.028-0.092-1.136-0.584-1.142-0.583c-0.202,0.066-0.922-0.63-1.115-0.708
				c-1.201-0.487,1.83,2.015,1.145,0.851c-0.534-0.907-1.694-1.727-2.362-2.584c1.094,1.878,2.189,3.756,3.284,5.634
				c-1.319-3.937-2.504-7.915-3.421-11.966c-0.411-1.813-0.719-3.639-1.069-5.463c-0.115-0.598-0.316-2.535,0.008,0.277
				c-0.115-0.999-0.226-1.997-0.307-3c-0.246-3.069-0.21-6.106-0.06-9.177c0.183-3.724-0.601,2.02,0.172-1.529
				c0.276-1.267,0.521-2.534,0.875-3.784c0.336-1.191,0.809-2.328,1.174-3.505c-1.181,3.809-0.045,0.192,0.489-0.802
				c0.542-1.01,1.167-1.951,1.764-2.927c1.691-2.762-1.898,1.836,0.65-0.853c1.444-1.524,2.998-2.868,4.5-4.322
				c-2.91,2.817-0.385,0.32,0.596-0.329c1.01-0.668,2.05-1.29,3.111-1.874c0.875-0.482,1.786-0.89,2.664-1.363
				c2.993-1.61-2.516,0.856,0.646-0.3c2.234-0.817,4.471-1.58,6.77-2.197c2.089-0.561,4.202-1.029,6.328-1.42
				c1.118-0.206,2.242-0.362,3.362-0.554c2.093-0.359-1.324,0.242-1.377,0.182c0.149,0.17,2.043-0.236,2.346-0.268
				c8.124-0.84,16.336-0.804,24.474-0.179c1.67,0.128,3.338,0.282,5.002,0.464c0.702,0.077,1.403,0.166,2.104,0.245
				c2.95,0.333-1.836-0.276-1.29-0.18c1.157,0.204,2.328,0.331,3.483,0.546c6.773,1.258,13.771-1.87,15.707-8.918
				C4696.776,1207.778,4692.966,1199.552,4686.151,1198.286L4686.151,1198.286z"/>
		</g>
	</g>
	<g>
		<path fill="#E29696" d="M3635.351,1220.099c-1.371,2.574-2.804,5.052-4.336,7.444c0.205-0.493,0.308-0.74,0.308-0.74
			c-28.997-38.433-81.725-70.171-108.842-84.868l-0.574-0.324c-26.597-15.62-80.966-44.329-128.006-48.813
			c0,0-0.147,0.222-0.44,0.665c1.134-2.616,2.414-5.181,3.784-7.756c15.312-28.764,40.137-48.993,68.759-59.165
			c35.029-12.4,75.759-9.803,111.892,10.591c31.544,17.804,53.899,45.974,64.83,77.497
			C3654.574,1148.741,3653.042,1186.865,3635.351,1220.099z"/>
		<path fill="#C68D66" d="M3509.422,1287.8c-9.625-1.534-19.911-4.09-30.92-7.822c-0.266,0.5-0.51,1.012-0.776,1.512
			c-18.249,35.899-29.739,56.944-35.41,67.006c-2.843,5.071-4.211,7.371-4.211,7.371s40.893,24.439,21.26,61.536
			c-0.254,0.477-0.52,0.977-0.808,1.464l-0.243-0.137c-0.277-0.127-0.553-0.253-0.818-0.403c-0.387-0.189-0.774-0.378-1.171-0.602
			c-21.139-10.514-42.981-22.457-62.467-33.544c-19.779-11.075-41.737-23.823-62.057-36.739c-0.649-0.396-1.322-0.805-1.959-1.224
			l-0.243-0.137c0.244-0.512,0.51-1.012,0.764-1.489c19.809-36.997,61.814-14.648,61.814-14.648s1.147-2.425,3.77-7.62
			c5.198-10.359,16.247-31.653,35.807-66.782c0.266-0.5,0.554-0.987,0.82-1.487c-8.977-7.548-16.603-15.101-23.036-22.632
			c-58.841-68.539-19.504-133.329-14.58-140.8c0,0,0,0,0.012-0.023c0.298-0.452,0.453-0.689,0.453-0.689
			c47.451,3.712,101.857,32.352,128.47,47.994l0.573,0.324c27.122,14.688,79.813,46.495,108.399,85.7c0,0-0.111,0.262-0.321,0.764
			c-0.012,0.023-0.012,0.023-0.012,0.023C3629.066,1233.009,3597.186,1302.007,3509.422,1287.8z"/>
		<path fill="#6FAD9E" d="M3572.81,997.453c0,0,29.425-54.87,81.754-56.84c1.695,19.954-34.5,4.044-72.703,62.237"/>
		<ellipse fill="#9E3E3E" cx="3566.753" cy="1001.133" rx="32.332" ry="33.293"/>
		<path fill="#E06C6C" d="M3643.219,1113.704c-6.504,8.824-15.388,15.005-24.921,15.561c-19.97,1.194-26.99-21.673-35.549-33.563
			c-1.682-2.338-5-2.409-6.783-0.136c-4.394,5.614-7.404,17.68-19.431,23.623c-5.492,2.719-11.843,3.063-17.677,1.306
			c-16.322-4.959-27.934-14.024-28.783-39.05c-0.385-11.294-12.106-18.323-21.771-12.938c-15.01,8.365-33.061,24.437-45.469,12.235
			c-13.996-13.748,8.909-40.609,23.805-55.39c34.641-11.67,75.125-8.612,111.257,11.782
			C3609.44,1054.938,3631.982,1082.755,3643.219,1113.704z"/>
		
			<ellipse transform="matrix(0.7324 -0.6808 0.6808 0.7324 111.2372 2765.9783)" fill="#AA7753" cx="3574.666" cy="1241.466" rx="18.467" ry="6.55"/>
		
			<ellipse transform="matrix(0.8457 -0.5337 0.5337 0.8457 -101.6922 2082.0664)" fill="#AA7753" cx="3549.691" cy="1216.891" rx="16.582" ry="6.089"/>
		
			<ellipse transform="matrix(0.975 -0.2222 0.2222 0.975 -192.0883 812.9824)" fill="#AA7753" cx="3516.805" cy="1260.121" rx="16.471" ry="6.769"/>
		
			<ellipse transform="matrix(0.5314 -0.8472 0.8472 0.5314 647.6417 3546.6421)" fill="#AA7753" cx="3529.364" cy="1187.966" rx="12.195" ry="6.013"/>
		
			<ellipse transform="matrix(0.9997 -0.0232 0.0232 0.9997 -27.7769 81.1908)" fill="#AA7753" cx="3491.228" cy="1239.761" rx="11.08" ry="4.887"/>
	</g>
	<g>
		<path fill="#C66A3C" d="M3050.245,1070.203l-0.649-0.629l-0.016,0.018c-18.599-17.328-48.041-15.453-66.197,4.397
			s-18.209,50.225-0.297,68.304l-0.016,0.018l67.484,65.444l61.653-67.409c1.827-1.51,3.579-3.166,5.235-4.976
			c18.371-20.085,18.22-50.956-0.336-68.951C3098.551,1048.423,3068.616,1050.118,3050.245,1070.203z"/>
	</g>
	<g>
		<g>
			<path fill="#DD8C4A" d="M2142.052,487.157c0,0-194.301,132.545-101.801,225.113c92.501,92.568,200.997,14.896,247.496-124.488
				c42.107-126.221-87.774-294.969-133.296-201.226C2130.736,435.394,2142.052,487.157,2142.052,487.157z"/>
		</g>
		<g>
			<g>
				<path fill="#411D05" d="M2294.978,381.723c-15.695,36.811-34.684,73.092-57.411,106.032
					c-7.631,11.06-14.736,20.417-24.433,30.242c-1.896,1.921-3.844,3.792-5.855,5.592c-1.068,0.956-2.154,1.894-3.26,2.807
					c-0.539,0.445-1.083,0.883-1.63,1.316c-0.537,0.423-0.434,0.344,0.308-0.239c-0.431,0.325-0.866,0.646-1.303,0.962
					c-1.913,1.337-3.832,2.648-5.853,3.819c-1.061,0.614-2.139,1.198-3.238,1.74c-0.428,0.211-0.863,0.405-1.291,0.616
					c-1.948,0.959,1.561-0.549-0.287,0.123c-2.108,0.767-4.205,1.317-6.38,1.847c-2.611,0.636,1.242,0.179-0.92,0.109
					c-2.529-0.082-5.088,0.21-7.629,0.143c-8.199-0.217-16.446-1.87-24.038-5.017c-7.138-2.958-13.452-7.232-18.688-12.752
					c-4.226-4.455-7.339-9.57-8.925-15.169c-1.693-5.978-1.582-11.327,0.623-17.662c0.866-2.489,2.977-6.324,5.02-9.025
					c0.801-1.06,1.697-2.064,2.606-3.035c0.68-0.727,4.001-3.265,1.448-1.628c0.711-0.456,1.455-0.886,2.159-1.349
					c1.844-1.215-1.305,0.256-0.037,0.003c0.704-0.14,1.657-0.326,2.333-0.589c-2.453,0.955-0.691,0.205,0.841,0.119
					c1.922-0.107,1.085,0.209,0.199-0.045c0.75,0.215,1.537,0.319,2.291,0.534c0.881,0.251,1.726,0.578,2.585,0.892
					c-2.868-1.047,0.393,0.25,1.121,0.641c1.76,0.946,3.395,2.062,5.039,3.193c1.368,0.941-0.135-0.129-0.342-0.292
					c0.539,0.423,1.071,0.854,1.596,1.294c0.905,0.758,1.788,1.543,2.652,2.347c1.83,1.703,3.573,3.499,5.244,5.359
					c0.7,0.779,1.387,1.571,2.062,2.372c0.484,0.575,3.089,3.884,2.042,2.497c3.454,4.574,6.587,9.384,9.424,14.365
					c1.33,2.334,2.594,4.706,3.793,7.111c0.673,1.35,1.326,2.71,1.958,4.08c0.254,0.55,0.499,1.103,0.75,1.654
					c0.247,0.554,0.49,1.109,0.731,1.665c-0.312-0.752-0.339-0.816-0.081-0.191c2.253,5.44,4.175,11.024,5.698,16.712
					c0.765,2.857,1.43,5.741,1.975,8.649c0.241,1.286,0.451,2.576,0.651,3.869c0.259,1.675-0.243-2.299,0.058,0.444
					c0.093,0.848,0.188,1.696,0.265,2.546c0.237,2.633,0.358,5.277,0.341,7.921c-0.008,1.22-0.043,2.441-0.113,3.659
					c-0.04,0.701-0.553,5.371-0.209,2.995c-0.332,2.293-0.795,4.569-1.414,6.802c-0.337,1.216-0.749,2.398-1.146,3.595
					c-0.156,0.471-0.351,0.936-0.533,1.397c0.888-2.245-0.156,0.309-0.397,0.764c-1.1,2.082-2.248,4.079-3.628,5.991
					c1.365-1.892-0.915,1.031-1.346,1.494c-0.862,0.924-1.791,1.767-2.71,2.632c-1.875,1.763,0.442-0.09-1.736,1.366
					c-1.119,0.748-2.248,1.469-3.424,2.125c-3.561,1.985-2.966,1.668-6.453,2.802c-12.817,4.17-25.697,3.719-38.504,0.343
					c-27.468-7.24-51.562-25.893-72.102-45.529c-9.219-8.813-17.936-18.152-26.192-27.871c-3.099-3.648-6.133-7.352-9.092-11.115
					c-0.314-0.4-2.03-2.603-1.014-1.292c1.017,1.314-0.526-0.688-0.808-1.059c-0.851-1.12-1.696-2.244-2.53-3.377
					c-0.645-0.876-1.288-1.753-1.911-2.643c-2.961-4.232-8.38-6.198-13.102-3.436c-4.188,2.45-6.415,8.843-3.435,13.102
					c10.052,14.367,21.678,27.848,33.795,40.491c22.33,23.301,48.103,44.763,78.318,56.871
					c26.279,10.531,63.409,12.688,84.445-9.867c17.809-19.096,16.517-47.902,9.696-71.357
					c-6.823-23.462-19.807-48.534-39.003-64.268c-7.619-6.245-16.753-11.725-26.968-11.374
					c-13.75,0.473-23.868,12.471-29.173,24.145c-16.534,36.387,15.158,70.346,49.559,78.046c15.324,3.43,31.132,3.528,45.208-3.907
					c11.092-5.859,20.602-14.917,28.912-24.188c20.287-22.636,36.27-49.155,50.718-75.776c9.836-18.125,19.005-36.652,27.32-55.527
					c0.438-0.994,0.876-1.989,1.302-2.989c2.027-4.753,1.42-10.262-3.435-13.102
					C2304.054,375.933,2297.017,376.939,2294.978,381.723L2294.978,381.723z"/>
			</g>
		</g>
	</g>
	<g>
		<path fill="#F5ECDD" d="M4261.574,1277.229c0,15.806-3.678,30.586-9.926,43.026c0,0-284.494,60.134-349.48,0
			c-2.445-2.263-0.584-6.805-0.584-10.317c0-54.222,38.772-98.125,86.596-98.125c14.657,0,28.757,19.338,40.525,11.488
			c3.12-2.081-0.701-7.61-0.701-11.488c0-44.709,28.905-80.929,64.583-80.929c35.678,0,64.583,36.221,64.583,80.929
			c0,0.659-0.117,1.244-0.117,1.903c10.978-10.903,24.875-17.415,39.94-17.415C4232.669,1196.3,4261.574,1232.52,4261.574,1277.229z
			"/>
	</g>
	<g>
		<path fill="#DD916B" d="M684.342,1210.455H365.295c-3.739-9.811-5.81-20.532-5.81-31.707c0-46.651,35.113-84.466,78.461-84.466
			c13.994,0,27.08,3.963,38.447,10.851c6.618-26.379,20.815-46.391,39.862-52.174c28.191-8.511,57.747,17.023,71.741,58.866
			c5.153-2.079,10.559-3.639,16.117-4.613c42.944-7.537,81.442,21.052,86.039,63.935
			C691.617,1184.791,689.343,1198.24,684.342,1210.455z"/>
	</g>
	<g>
		<polygon fill="#A1C3CF" points="2427.121,1999.505 2383.028,1843.123 2465.29,1909.549 2494.539,1819.593 2534.536,1903.973 
			2595.039,1819.593 2590.469,1993.908 		"/>
	</g>
	<g>
		<polygon fill="#E87A49" points="1699.978,769.074 1679.298,695.729 1717.88,726.884 1731.598,684.694 1750.357,724.268 
			1778.733,684.694 1776.589,766.448 		"/>
	</g>
	<g>
		<g>
			
				<ellipse transform="matrix(0.9328 -0.3604 0.3604 0.9328 29.4564 1334.8344)" fill="#C66A3C" cx="3594.071" cy="588.43" rx="237.101" ry="94.767"/>
		</g>
		
			<ellipse transform="matrix(0.9332 -0.3594 0.3594 0.9332 36.459 1331.7982)" fill="#411D05" cx="3600.004" cy="567.845" rx="167.951" ry="57.818"/>
		<path fill="#DE804C" d="M3832.736,382.499c-11.937-24.354-55.49-27.929-97.241-8.048c-41.789,19.9-65.979,55.762-54.042,80.078
			c11.918,24.335,55.471,27.929,97.26,8.029C3820.483,442.677,3844.673,406.815,3832.736,382.499z M3763.415,454.739
			c-34.92,16.631-69.859,16.555-78.046-0.153c-8.206-16.708,13.441-43.738,48.361-60.35c34.901-16.631,69.84-16.555,78.046,0.153
			C3819.982,411.097,3798.317,438.127,3763.415,454.739z"/>
		<g>
			<path fill="#DE804C" d="M3462.198,393.942c0,0,0,203.756,148.08,184.865s128.424-220.623,128.424-220.623
				S3599.795,438.472,3462.198,393.942z"/>
			<path fill="#DD916B" d="M3462.198,393.942c0,0,120.561-124.143,276.504-35.758
				C3583.742,442.857,3462.198,393.942,3462.198,393.942z"/>
		</g>
		<path fill="#F7BA9F" d="M3600.15,454.08l-0.253-0.246l-0.006,0.007c-7.251-6.768-18.482-6.317-25.25,1.082
			c-6.768,7.399-6.532,18.97,0.463,26.018l-0.006,0.007l26.331,25.535l22.982-25.128c0.685-0.559,1.341-1.174,1.958-1.849
			c6.848-7.487,6.53-19.249-0.71-26.27S3606.998,446.593,3600.15,454.08z"/>
		<ellipse fill="#C66A3C" cx="3703.397" cy="414.309" rx="4.655" ry="7.894"/>
		<ellipse fill="#C66A3C" cx="3681.249" cy="442.526" rx="5.44" ry="8.516"/>
		<ellipse fill="#C66A3C" cx="3696.32" cy="465.448" rx="5.242" ry="9.274"/>
		
			<ellipse transform="matrix(0.5228 -0.8524 0.8524 0.5228 1298.3809 3382.5493)" fill="#C66A3C" cx="3670.637" cy="531.502" rx="9.196" ry="5.486"/>
		<ellipse fill="#C66A3C" cx="3662.248" cy="493.045" rx="5.44" ry="9.274"/>
	</g>
	<g>
		<g>
			<path fill="#443226" d="M2042.772,1152.256l-18.17-3.219l18.319-109.628c0.863-5.167,5.631-8.634,10.648-7.745l0,0
				c5.017,0.889,8.385,5.798,7.522,10.964L2042.772,1152.256z"/>
		</g>
		<g>
			<path fill="#73A894" d="M2029.543,1122.659L2029.543,1122.659c-65.822-7.412-113.346-68.365-106.148-136.143v0h0
				C1989.217,993.929,2036.741,1054.882,2029.543,1122.659L2029.543,1122.659z"/>
		</g>
		<g>
			<path fill="#E87A49" d="M2048.246,1130.489c0,0,241.341-66.548,196.105,152.269c-42.546,205.809-288.559,134.743-355.378,26.509
				C1829.387,1212.749,1882.377,1075.921,2048.246,1130.489z"/>
		</g>
		
			<ellipse transform="matrix(0.2339 -0.9723 0.9723 0.2339 345.8386 3065.8884)" fill="#B75E37" cx="2118.331" cy="1313.498" rx="7.315" ry="5.306"/>
		
			<ellipse transform="matrix(0.0018 -1 1 0.0018 916.7382 3348.552)" fill="#B75E37" cx="2135.58" cy="1215.104" rx="8.825" ry="5.297"/>
		
			<ellipse transform="matrix(0.9896 -0.144 0.144 0.9896 -156.106 329.0753)" fill="#B75E37" cx="2194.783" cy="1242.721" rx="5.3" ry="12.738"/>
		
			<ellipse transform="matrix(0.7178 -0.6962 0.6962 0.7178 -209.3157 1856.3273)" fill="#B75E37" cx="2185.534" cy="1186.401" rx="5.374" ry="17.314"/>
		
			<ellipse transform="matrix(0.2386 -0.9711 0.9711 0.2386 402.4414 3074.6025)" fill="#B75E37" cx="2161.857" cy="1280.669" rx="9.299" ry="6.152"/>
	</g>
	<g>
		<g>
			<path fill="#3D270F" d="M2037.721,1933.23c2.073,23.306,1.475,46.093-1.502,67.862l-48.732,4.596
				c-23.719-95.85-78.649-176.888-147.725-170.372c-69.064,6.514-110.362,96.187-115.195,195.171l-53.088,5.007
				c-6.769-20.85-11.377-43.146-13.45-66.452c-11.843-133.134,63.548-249.071,168.403-258.961
				C1931.286,1700.192,2025.878,1800.095,2037.721,1933.23z"/>
		</g>
		<g>
			<path fill="#945931" d="M2019.368,1963.868c1.054,11.848,1.424,23.554,1.155,35.039l-33.401,3.15
				c-15.067-102.431-78.829-177.836-147.765-171.334c-68.954,6.504-118.347,92.619-115.071,196.2l-35.996,3.395
				c-2.31-11.261-4.013-22.86-5.07-34.745c-11.251-126.479,54.863-236.099,147.712-244.857
				C1923.762,1741.961,2008.117,1837.389,2019.368,1963.868z"/>
		</g>
		<g>
			<path fill="#D5BA83" d="M2010.444,2006.727c0.145,1.634,0.274,3.27,0.385,4.907l-24.458,2.307
				c-18.066-102.092-80.223-176.094-146.872-169.808c-66.667,6.288-114.729,90.724-114.462,194.532l-24.441,2.305
				c-0.181-1.65-0.347-3.319-0.494-4.972c-10.392-116.823,50.649-218.081,136.346-226.164
				C1922.144,1801.751,2000.052,1889.904,2010.444,2006.727z"/>
		</g>
		<g>
			<path fill="#C66A3C" d="M2088.466,1857.012l-0.225-0.261l-0.006,0.006c-6.475-7.224-17.425-7.791-24.624-1.207
				c-7.2,6.584-7.946,17.848-1.744,25.321l-0.007,0.006l23.43,27.165l24.449-22.359c0.713-0.482,1.402-1.021,2.058-1.621
				c7.285-6.662,7.968-18.118,1.525-25.588S2095.751,1850.349,2088.466,1857.012z"/>
		</g>
		<g>
			<path fill="#DD916B" d="M2048.269,2017.827c0.6-3.617,0.929-7.328,0.929-11.121c0-36.264-28.55-65.662-63.767-65.662
				c-7.976,0-15.604,1.521-22.642,4.275c-7.34-21.699-27.37-37.277-50.946-37.277c-16.187,0-30.697,7.351-40.586,18.975
				c-11.293-11.625-27.865-18.975-46.351-18.975c-32.59,0-59.252,22.819-61.447,51.701c-10.107-5.575-21.652-8.745-33.92-8.745
				c-39.734,0-71.945,33.168-71.945,74.083c0,10.084,1.964,19.693,5.508,28.456c-11.095,11.815-17.934,27.894-17.934,45.627
				c0,36.264,28.55,65.662,63.768,65.662c18.681,0,35.484-8.273,47.147-21.453c13.386,22.86,43.297,38.789,78.076,38.789
				c45.393,0,82.51-27.123,85.377-61.398c13.588,6.814,29.383,10.737,46.254,10.737c50.743,0,91.879-35.324,91.879-78.898
				C2057.669,2040.118,2054.28,2028.319,2048.269,2017.827z"/>
		</g>
		<g>
			<path fill="#C66A3C" d="M1634.07,1680.6l-0.316-0.303l-0.007,0.008c-9.052-8.336-22.984-7.681-31.322,1.558
				c-8.338,9.239-7.952,23.594,0.784,32.28l-0.008,0.008l32.878,31.46l28.315-31.375c0.846-0.7,1.654-1.468,2.414-2.311
				c8.437-9.349,7.948-23.94-1.093-32.591C1656.675,1670.685,1642.506,1671.251,1634.07,1680.6z"/>
		</g>
		<g>
			<path fill="#C66A3C" d="M1588.736,1996.477l-0.183-0.198l-0.005,0.005c-5.244-5.467-13.813-5.611-19.268-0.271
				c-5.455,5.34-5.749,14.16-0.711,19.829l-0.005,0.005l19.003,20.583l18.525-18.134c0.544-0.396,1.069-0.836,1.566-1.323
				c5.52-5.403,5.759-14.372,0.534-20.031C1602.967,1991.281,1594.256,1991.074,1588.736,1996.477z"/>
		</g>
		
			<ellipse transform="matrix(0.8016 -0.5979 0.5979 0.8016 -791.0865 1589.3119)" fill="#C66A3C" cx="1998.935" cy="1986.517" rx="6.409" ry="11.246"/>
		
			<ellipse transform="matrix(0.8131 -0.5821 0.5821 0.8131 -867.1484 1372.3278)" fill="#C66A3C" cx="1703.815" cy="2036.741" rx="6.408" ry="8.731"/>
		
			<ellipse transform="matrix(0.3618 -0.9323 0.9323 0.3618 -625.1152 3109.2192)" fill="#C66A3C" cx="1958.293" cy="2011.169" rx="11.323" ry="5.439"/>
		<path fill="#C66A3C" d="M2002.06,2037.166c0,6.279-2.425,11.368-5.417,11.368c-2.992,0-5.417-5.09-5.417-11.368
			c0-6.279,2.426-11.368,5.417-11.368C1999.634,2025.797,2002.06,2030.887,2002.06,2037.166z"/>
		
			<ellipse transform="matrix(0.9379 -0.347 0.347 0.9379 -591.8292 723.4373)" fill="#C66A3C" cx="1724.318" cy="2014.429" rx="5.437" ry="11.327"/>
		
			<ellipse transform="matrix(0.8162 -0.5778 0.5778 0.8162 -844.4557 1514.8735)" fill="#C66A3C" cx="1958.577" cy="2084.6" rx="8.142" ry="5.689"/>
		
			<ellipse transform="matrix(0.8224 -0.5689 0.5689 0.8224 -832.5214 1468.4974)" fill="#C66A3C" cx="1935.933" cy="2067.756" rx="8.114" ry="4.827"/>
	</g>
	<g>
		<g>
			<path fill="#411D05" d="M4644.309,2030.787h-118.437c-1.291-2.326-2.622-4.61-3.973-6.873
				c-38.82-65.432-97.585-107.129-163.368-107.129s-124.547,41.697-163.368,107.129c-1.351,2.263-2.662,4.548-3.952,6.873h-118.437
				c0-162.51,127.955-294.247,285.778-294.247C4516.374,1736.541,4644.309,1868.277,4644.309,2030.787z"/>
		</g>
		<path fill="#945931" d="M4586.694,2023.059h-64.794c-38.82-65.432-97.585-107.129-163.368-107.129
			s-124.547,41.697-163.368,107.129h-64.794c24.986-128.87,117.65-224.537,228.162-224.537
			C4469.063,1798.522,4561.708,1894.188,4586.694,2023.059z"/>
		<path fill="#D5BA83" d="M4560.518,2023.059h-38.619c-38.82-65.432-97.585-107.129-163.368-107.129
			s-124.547,41.697-163.368,107.129h-38.618c36.804-97.058,113.436-163.798,201.986-163.798
			C4447.083,1859.261,4523.714,1926.001,4560.518,2023.059z"/>
		<g>
			<path fill="#DD916B" d="M4237.952,2045.042c23.426-31.216-23.421-75.804-66.509-32.703c-12.925-26.318-58.15-17.808-62.909,5.275
				c-13.606-16.936-52.632-9.372-48.604,18.617c-25.396,0.108-45.938,15.045-45.938,33.459c0,14.971,13.578,27.643,32.301,31.918
				c-13.521,26.797,20.527,65.559,53.084,34.635c5.47,14.064,23.304,24.377,44.475,24.377c20.324,0,37.571-9.505,43.76-22.707
				c8.12,4.218,17.171,5.761,25.673,3.698c17.104-4.151,26.157-21.456,22.157-40.307
				C4268.548,2101.273,4265.596,2046.238,4237.952,2045.042z"/>
		</g>
		<g>
			<path fill="#DD916B" d="M4694.89,2041.968c25.42-30.435-22.257-76.535-68.591-34.865c-12.742-26.728-60.289-19.703-65.947,3.213
				c-13.729-17.374-54.767-11.091-51.381,17.017c-26.562-0.723-48.486,13.534-49.03,31.94
				c-0.441,14.964,13.384,28.074,32.839,32.961c-14.931,26.342,19.533,66.201,54.495,36.357
				c5.306,14.237,23.652,25.129,45.793,25.822c21.255,0.665,39.573-8.27,46.435-21.264c8.368,4.482,17.788,6.321,26.74,4.536
				c18.01-3.589,27.988-20.59,24.362-39.563C4725.23,2099.176,4723.766,2044.069,4694.89,2041.968z"/>
		</g>
	</g>
	<g>
		<g>
			<path fill="#BC9CE7" d="M1643.931,1212.412l-20.37,5.517l-54.987,13.346c-0.073-0.78-0.17-1.579-0.287-2.374
				c-4.275-29.004-30.556-55.918-62.091-48.292c-28.02,6.776-38.716,33.423-37.387,58.654c0.288,5.472,1.377,10.678,3.123,15.507
				l-156.145,37.932c-7.171-31.134-40.74-54.037-74.119-40.205c-21.127,8.755-34.938,34.789-25.878,63.731l-1.637,0.621
				l-27.483,7.207c-12.272,1.918-23.739-6.777-25.605-19.435l-5.113-34.688c-4.938-33.495,10.159-65.328,36.036-82.685l-1.07-7.26
				c-8.299-56.3,6.194-88.98,52.348-115.007c15.12-8.549,72.595-25.879,89.286-30.393l72.072-19.698
				c61.202-9.566,84.458,45.428,109.569,94.812c2.311,4.545,5.471,8.574,9.317,11.835h0c4.019,3.407,9.255,4.894,14.401,4.09l0,0
				C1593.032,1117.009,1633.755,1143.382,1643.931,1212.412z"/>
		</g>
		<ellipse cx="1262.692" cy="1300.579" rx="34.332" ry="35.352"/>
		<ellipse cx="1518.14" cy="1231.067" rx="35.903" ry="36.97"/>
		<path fill="#9876CC" d="M1474.127,1142.56l-116.844,31.186l-27.37-108.73l40.921-10.922
			c41.931-11.192,84.734,14.737,95.602,57.914L1474.127,1142.56z"/>
		<path fill="#9876CC" d="M1229.978,1193.287l90.235-18.645l-18.107-92.916l-28.558,5.901
			c-34.064,7.038-56.137,41.179-49.301,76.254L1229.978,1193.287z"/>
	</g>
	<g>
		<path fill="#BC9CE7" d="M2808.661,1277.299c-19.246-40.125-72.743-16.223-85.03-4.639c-4.92-21.112-22.268-36.711-42.915-36.711
			c-17.002,0-31.76,10.583-39.19,26.107c-9.901-15.524-29.564-26.107-52.217-26.107c-32.608,0-59.041,21.917-59.041,48.952
			c0,0.628,0.029,1.25,0.057,1.872c-5.137-1.21-10.553-1.872-16.159-1.872c-32.608,0-59.042,21.917-59.042,48.952
			c0,27.036,26.434,48.952,59.042,48.952c13.873,0,26.619-3.977,36.696-10.618c6.216,36.699,36.298,64.545,72.499,64.545
			c29.184,0,54.401-18.094,66.339-44.335c12.657,13.818,32.776,22.756,55.437,22.756c38.305,0,76.319-17.393,71.599-48.508
			c-2.902-19.131-10.491-30.305-28.922-32.527C2794.658,1328.992,2822.208,1305.543,2808.661,1277.299z"/>
	</g>
	<g>
		<g>
			<path fill="#7FB0BF" d="M747.236,1446.787c0,0-32.584,89.461,5.758,83.208C790.314,1523.909,747.236,1446.787,747.236,1446.787z"
				/>
		</g>
		<g>
			<path fill="#7FB0BF" d="M856.076,1410.198c0,0-32.584,89.461,5.758,83.208C899.154,1487.32,856.076,1410.198,856.076,1410.198z"
				/>
		</g>
		<g>
			<path fill="#7FB0BF" d="M941.708,1498.676c0,0-32.584,89.461,5.758,83.209C984.787,1575.799,941.708,1498.676,941.708,1498.676z"
				/>
		</g>
		<g>
			<path fill="#7FB0BF" d="M975.597,1391.896c0,0-32.584,89.461,5.758,83.209C1018.675,1469.019,975.597,1391.896,975.597,1391.896z
				"/>
		</g>
	</g>
	<g>
		<g>
			<path fill="#A1C3CF" d="M369.714,1874.247c0,0,12.824,242.55,24.298,248.804s160.04,16.446,224.573-11.575
				c4.665-48.036,23.802-224.72,9.629-251.129C571.519,1865.213,369.714,1874.247,369.714,1874.247z"/>
		</g>
		<path fill="#7FB0BF" d="M597.054,2037.105L597.054,2037.105c-3.79,0-6.862-3.072-6.862-6.862v-117.628
			c0-3.79,3.072-6.862,6.862-6.862l0,0c3.79,0,6.862,3.072,6.862,6.862v117.628C603.915,2034.033,600.843,2037.105,597.054,2037.105
			z"/>
		<path fill="#7FB0BF" d="M550.742,2074.784L550.742,2074.784c-3.79,0-6.862-3.072-6.862-6.862v-141.639
			c0-3.79,3.072-6.862,6.862-6.862l0,0c3.79,0,6.862,3.072,6.862,6.862v141.639C557.604,2071.712,554.532,2074.784,550.742,2074.784
			z"/>
		<path fill="#7FB0BF" d="M492.664,2047.993L492.664,2047.993c-3.541,0-6.412-2.871-6.412-6.412v-115.748
			c0-3.541,2.871-6.412,6.412-6.412l0,0c3.541,0,6.412,2.871,6.412,6.412v115.748
			C499.076,2045.123,496.205,2047.993,492.664,2047.993z"/>
		<path fill="#7FB0BF" d="M419.209,1985.21L419.209,1985.21c-3.914,0-7.087-3.173-7.087-7.087v-53.703
			c0-3.914,3.173-7.087,7.087-7.087h0c3.914,0,7.087,3.173,7.087,7.087v53.703C426.296,1982.037,423.123,1985.21,419.209,1985.21z"
			/>
		<path fill="#D5BA83" d="M377.813,1886.294c-8.84-1.735-29.697,16.68-35.996,0c-6.299-16.68-15.298-156.603,194.381-143.63
			c146.685,9.266,120.588,159.383,100.79,154.75c-12.599-4.633-13.169-17.616-19.798-18.533
			c-6.169-0.853-10.961,17.565-17.098,18.638c-8.741,1.528-22.912-19.067-31.497-16.785c-6.283,1.67-4.143,21.568-14.399,22.24
			c-12.374,0.811-21.204-18.763-29.697-17.606c-8.201,1.117-15.291,22.397-23.398,24.093c-9.99,2.089-27.731-17.413-37.796-15.753
			c-7.566,1.248-15.735,20.433-23.398,20.386c-8.931-0.054-18.076-24.538-26.997-24.093c-6.199,0.31-10.895,18.741-17.098,18.533
			C388.786,1908.298,384.717,1887.649,377.813,1886.294z"/>
		<path fill="#945931" d="M510.801,1812.249l-1.499,0.454c-2.864,0.867-5.869-0.822-6.71-3.771l-3.295-11.546
			c-0.842-2.949,0.798-6.043,3.662-6.91l1.499-0.454c2.864-0.867,5.869,0.822,6.71,3.771l3.295,11.546
			C515.305,1808.288,513.666,1811.382,510.801,1812.249z"/>
		<path fill="#945931" d="M433.458,1768.814l-0.662,0.026c-3.231,0.129-5.953-2.463-6.079-5.791l-0.567-15.016
			c-0.126-3.327,2.392-6.13,5.624-6.259l0.662-0.026c3.231-0.129,5.953,2.463,6.079,5.791l0.567,15.016
			C439.207,1765.882,436.689,1768.685,433.458,1768.814z"/>
		<path fill="#945931" d="M504.927,1754.197l-0.599-0.293c-2.921-1.428-4.165-5.024-2.779-8.032l6.258-13.575
			c1.387-3.008,4.879-4.289,7.801-2.861l0.599,0.293c2.921,1.428,4.166,5.024,2.779,8.032l-6.258,13.575
			C511.341,1754.344,507.849,1755.625,504.927,1754.197z"/>
		<path fill="#945931" d="M380.037,1799.645l-0.115,0.672c-0.562,3.279-3.6,5.468-6.785,4.889l-14.371-2.613
			c-3.185-0.579-5.31-3.707-4.748-6.986l0.115-0.672c0.562-3.279,3.6-5.468,6.785-4.889l14.371,2.613
			C378.474,1793.238,380.6,1796.365,380.037,1799.645z"/>
		<path fill="#945931" d="M619.669,1763.424l0.445,0.505c2.174,2.466,1.995,6.279-0.4,8.517l-10.805,10.1
			c-2.394,2.238-6.098,2.054-8.271-0.411l-0.445-0.505c-2.174-2.465-1.995-6.279,0.4-8.517l10.805-10.1
			C613.792,1760.774,617.495,1760.958,619.669,1763.424z"/>
		<path fill="#945931" d="M621.709,1842.198l-0.331,0.591c-1.617,2.884-5.198,3.872-7.999,2.207l-12.638-7.514
			c-2.801-1.665-3.76-5.352-2.143-8.236l0.331-0.591c1.617-2.884,5.198-3.872,7.999-2.207l12.638,7.514
			C622.366,1835.627,623.326,1839.315,621.709,1842.198z"/>
		<path fill="#945931" d="M391.338,1866.824l-0.331,0.591c-1.617,2.884-5.198,3.872-7.999,2.207l-12.638-7.514
			c-2.801-1.665-3.76-5.353-2.143-8.236l0.331-0.591c1.617-2.884,5.198-3.872,7.999-2.207l12.638,7.514
			C391.996,1860.252,392.955,1863.94,391.338,1866.824z"/>
		<path fill="#945931" d="M543.333,1869.578l-0.836,0.253c-3.047,0.922-6.244-0.874-7.139-4.012l-3.921-13.74
			c-0.896-3.138,0.849-6.429,3.896-7.351l0.836-0.253c3.047-0.922,6.244,0.874,7.139,4.012l3.921,13.74
			C548.125,1865.365,546.38,1868.656,543.333,1869.578z"/>
		<path fill="#945931" d="M458.085,1864.5l-0.843-0.23c-3.07-0.839-4.898-4.081-4.084-7.243l3.567-13.843
			c0.815-3.161,3.964-5.044,7.034-4.205l0.843,0.23c3.07,0.839,4.898,4.081,4.084,7.242l-3.567,13.843
			C464.304,1863.456,461.155,1865.339,458.085,1864.5z"/>
		<g>
			<path fill="#C66A3C" d="M317.814,1695.244l-0.298-0.289l-0.007,0.007c-8.525-7.974-21.382-7.84-28.901,0.382
				s-6.88,21.444,1.361,29.729l-0.007,0.007l30.99,30.053l25.536-27.919c0.767-0.615,1.499-1.295,2.185-2.045
				c7.609-8.319,6.869-21.762-1.652-30.026C338.499,1686.88,325.423,1686.925,317.814,1695.244z"/>
		</g>
		<g>
			<path fill="#C66A3C" d="M730.516,1833.537l-0.298-0.289l-0.007,0.007c-8.525-7.974-21.382-7.839-28.901,0.382
				c-7.52,8.221-6.88,21.444,1.361,29.729l-0.007,0.007l30.99,30.053l25.536-27.919c0.767-0.615,1.499-1.295,2.185-2.045
				c7.609-8.319,6.869-21.762-1.652-30.026S738.125,1825.218,730.516,1833.537z"/>
		</g>
	</g>
	<g>
		<g>
			<path fill="#C66A3C" d="M810.918,276.632l-0.224-0.391l-0.009,0.006c-6.504-10.896-19.86-14.734-30.047-8.544
				c-10.187,6.19-13.382,20.083-7.263,31.214l-0.009,0.006l23.331,40.714l34.594-21.02c0.974-0.4,1.93-0.878,2.859-1.443
				c10.308-6.263,13.463-20.416,7.048-31.611C834.782,274.367,821.226,270.368,810.918,276.632z"/>
		</g>
		<g>
			<path fill="#C66A3C" d="M693.653,781.51l-0.382-0.227l-0.005,0.009c-10.867-6.194-24.329-2.773-30.243,7.775
				c-5.914,10.548-2.061,24.263,8.582,30.857l-0.005,0.009l39.759,23.637l20.084-35.82c0.657-0.842,1.261-1.742,1.801-2.704
				c5.984-10.673,1.973-24.594-8.959-31.093C713.351,767.454,699.637,770.837,693.653,781.51z"/>
		</g>
		<g>
			<path fill="#C66A3C" d="M308.496,471.971l-0.294-0.167l-0.004,0.007c-8.361-4.538-18.551-1.719-22.891,6.4
				c-4.34,8.12-1.201,18.492,6.996,23.338l-0.004,0.007l30.605,17.345l14.738-27.573c0.487-0.651,0.933-1.346,1.329-2.086
				c4.391-8.216,1.129-18.742-7.286-23.512S312.888,463.755,308.496,471.971z"/>
		</g>
		<g>
			<path fill="#411D05" d="M891.097,697.574H713.324c-22.369-93.845-57.623-148.81-97.313-148.81
				c-39.661,0-69.677,54.965-91.711,148.81H340.925c3.642-204.897,125.407-369.456,275.086-369.456S887.455,492.678,891.097,697.574
				z"/>
		</g>
		<path fill="#945931" d="M852.305,697.574H715.494c-22.225-99.879-58.483-164.953-99.493-164.953
			c-40.98,0-77.277,65.074-99.492,164.953H379.716C395.097,511.38,495.048,367.689,616.02,367.689
			C737.002,367.689,836.925,511.38,852.305,697.574z"/>
		<path fill="#D5BA83" d="M807.396,697.574h-91.902c-22.225-99.879-58.483-164.953-99.493-164.953
			c-40.98,0-77.277,65.074-99.492,164.953h-91.902c19.673-169.599,97.906-296.31,191.395-296.31S787.723,527.976,807.396,697.574z"
			/>
		<path fill="#D8C5AB" d="M777.151,697.574h-61.657c-22.225-99.879-58.483-164.953-99.493-164.953
			c-40.98,0-77.277,65.074-99.492,164.953h-61.667c24.969-148.524,87.715-253.896,161.159-253.896
			C689.464,443.678,752.211,549.05,777.151,697.574z"/>
		<path fill="#6B85B6" d="M733.742,697.574h-20.418c-22.369-93.845-57.623-148.81-97.313-148.81
			c-39.661,0-69.677,54.965-91.711,148.81h-22.12c24.08-111.829,66.924-186.253,115.781-186.253
			C666.818,511.321,709.663,585.745,733.742,697.574z"/>
	</g>
	<g>
		<g>
			<g>
				<path fill="#6FAD9E" d="M1526.704,545.399c-47.369,102.752-121.793,139.192-208.401,96.858
					c-86.608-42.334-106.24-124.748-58.872-227.5c47.369-102.752,132.797-163.062,219.405-120.728
					S1574.073,442.647,1526.704,545.399z"/>
			</g>
		</g>
		<polygon fill="#3C2714" points="1207.809,792.535 1248.32,818.841 1361.855,572.562 1442.649,524.316 1373.485,538.919 
			1439.143,374.984 1361.816,496.603 1333.521,449.612 1347.467,521.627 		"/>
	</g>
	<g>
		<g>
			<g>
				<path fill="#6FAD9E" d="M3104.597,2160.345c-30.758,10.794-85.621,55.738-130.565-2.182
					c-16.61-21.406-6.294-89.919-9.83-106.257c-5.282-24.409-56.784-64.348-60.878-101.213
					c-4.316-38.866,35.373-117.466,36.136-156.577c0.8-40.955-79.046-139.061-29.655-185.215
					c42.401-39.623,175.006,70.236,206.261,119.637c27.331,43.2,8.674,164.141,42.531,202.125
					c34.194,38.362,81.095,68.316,80.021,109.29C3236.741,2111.609,3145.169,2146.107,3104.597,2160.345z"/>
			</g>
		</g>
		<polygon fill="#3C2714" points="3112.687,2235.258 3146.749,2224.951 3110.526,2098.03 3143.66,2030.822 3101.048,2069.291 
			3035.243,1852.864 3057.61,1989.662 3011.973,1968.272 3060.055,2019.543 		"/>
	</g>
</g>
<g>
</g>
<g>
</g>
<g>
</g>
<g>
</g>
<g>
</g>
<g>
</g>
</svg>
